<?xml version="1.0" encoding="UTF-8"?>
<svg version="1.1" xmlns="http://www.w3.org/2000/svg" width="96" height="96">
<path d="M0 0 C1.21788712 -0.00524185 2.43577423 -0.0104837 3.69056702 -0.0158844 C6.26172118 -0.02229728 8.83290471 -0.02097716 11.40405273 -0.01245117 C15.33044864 -0.00394354 19.2553884 -0.03271241 23.18164062 -0.06445312 C25.68359332 -0.06606536 28.18554857 -0.06548719 30.6875 -0.0625 C31.85748032 -0.07373398 33.02746063 -0.08496796 34.2328949 -0.09654236 C40.79573848 -0.04063793 45.22483543 0.23132607 50.41015625 4.43359375 C54.53150544 9.79545116 53.84329875 16.15525895 53.80859375 22.62109375 C53.81146393 23.79696045 53.81433411 24.97282715 53.81729126 26.18432617 C53.81932888 28.66553225 53.81382022 31.14675451 53.80126953 33.62792969 C53.78521259 37.42028815 53.80112953 41.21158083 53.8203125 45.00390625 C53.81833002 47.4179711 53.81448624 49.83203528 53.80859375 52.24609375 C53.81466644 53.37748779 53.82073914 54.50888184 53.82699585 55.67456055 C53.73401983 66.10926165 53.73401983 66.10926165 50.41015625 70.43359375 C44.33226121 75.35086511 38.30388917 75.01745121 30.72265625 74.96484375 C29.50618408 74.96867065 28.28971191 74.97249756 27.03637695 74.97644043 C24.47118296 74.97915553 21.90596109 74.9718227 19.34082031 74.95507812 C15.42319787 74.93366503 11.50740941 74.95489589 7.58984375 74.98046875 C5.09244388 74.97782541 2.59504516 74.9727003 0.09765625 74.96484375 C-1.65260864 74.97698914 -1.65260864 74.97698914 -3.43823242 74.98937988 C-9.98673785 74.91418426 -14.41360923 74.62138402 -19.58984375 70.43359375 C-23.6964555 65.08004149 -23.04023342 58.7364446 -23.0234375 52.28125 C-23.02867935 51.10775497 -23.0339212 49.93425995 -23.0393219 48.72520447 C-23.04573363 46.2482075 -23.04441615 43.77118004 -23.03588867 41.29418945 C-23.02738095 37.51262987 -23.05615128 33.73258229 -23.08789062 29.95117188 C-23.08950287 27.54036503 -23.08892466 25.12955553 -23.0859375 22.71875 C-23.09717148 21.59251724 -23.10840546 20.46628448 -23.11997986 19.30592346 C-23.06279151 12.83645751 -22.70360629 8.55769397 -18.58984375 3.43359375 C-13.17581697 -0.76551018 -6.54557066 -0.01639535 0 0 Z " fill="#151515" transform="translate(32.58984375,10.56640625)"/>
<path d="M0 0 C6.991875 -0.0928125 6.991875 -0.0928125 14.125 -0.1875 C15.58437988 -0.21481201 17.04375977 -0.24212402 18.54736328 -0.27026367 C19.70993652 -0.27775635 20.87250977 -0.28524902 22.0703125 -0.29296875 C23.25383301 -0.3086792 24.43735352 -0.32438965 25.65673828 -0.34057617 C30.23308223 0.12561339 33.60861326 1.58802191 36.84765625 4.875 C38.93681023 8.72754158 38.6564752 12.75055836 38 17 C36.125 19.625 36.125 19.625 34 21 C33.34 21 32.68 21 32 21 C32 21.66 32 22.32 32 23 C32.763125 23.2475 33.52625 23.495 34.3125 23.75 C37.44463315 25.20680612 38.48717792 25.89473363 40 29 C40.7144061 33.57394148 40.4105962 37.05384353 38.5625 41.3125 C34.36665645 45.71301884 29.81089831 47.72477628 23.73608398 48.31958008 C20.12618207 48.39241385 16.54708975 48.34900689 12.9375 48.25 C6.5334375 48.12625 6.5334375 48.12625 0 48 C0 32.16 0 16.32 0 0 Z " fill="#F3F3F3" transform="translate(28,24)"/>
<path d="M0 0 C2.93774463 -0.05390357 5.87450232 -0.0936255 8.8125 -0.125 C10.06256836 -0.15013672 10.06256836 -0.15013672 11.33789062 -0.17578125 C12.14033203 -0.18222656 12.94277344 -0.18867187 13.76953125 -0.1953125 C14.50792236 -0.20578613 15.24631348 -0.21625977 16.00708008 -0.22705078 C18 0 18 0 21 2 C21.4842231 5.73543532 21.65107464 8.02768273 19.51953125 11.2109375 C15.82935056 13.83125185 12.65495449 13.4399317 8.25 13.25 C7.06083984 13.22292969 7.06083984 13.22292969 5.84765625 13.1953125 C3.89791652 13.14833082 1.94880122 13.07659044 0 13 C0 8.71 0 4.42 0 0 Z " fill="#1F1F1F" transform="translate(37,51)"/>
<path d="M0 0 C2.79192205 -0.05380578 5.5828141 -0.09357669 8.375 -0.125 C9.1690625 -0.14175781 9.963125 -0.15851562 10.78125 -0.17578125 C12.85492015 -0.19335473 14.92883241 -0.10335168 17 0 C17.66 0.66 18.32 1.32 19 2 C18.8125 5.5 18.8125 5.5 18 9 C14.31912647 11.45391569 11.55644412 11.22802759 7.3125 11.125 C6.2596582 11.11146484 6.2596582 11.11146484 5.18554688 11.09765625 C3.45688475 11.07413704 1.72839855 11.03826713 0 11 C0 7.37 0 3.74 0 0 Z " fill="#191919" transform="translate(38,32)"/>
<path d="M0 0 C0.66 0.33 1.32 0.66 2 1 C-0.31 3.31 -2.62 5.62 -5 8 C-5 5 -5 5 -2.5 2.3125 C-1.675 1.549375 -0.85 0.78625 0 0 Z " fill="#0C0C0C" transform="translate(17,12)"/>
</svg>
